<svg xmlns="http://www.w3.org/2000/svg" xml:space="preserve" id="Livello_1" x="0" y="0" version="1.1" viewBox="36.76 68.993 493.611 493.611">
  <style>.st0{fill:#274872}.st2{fill:#5783ab}.st3{fill:#eaecec}</style>
  <path d="M243.53 178.65c-.06-4.5-.37-9.02 0-13.49.1-1.22 2.13-3.09 3.45-3.25 6.99-.88 14.03-1.47 21.07-1.8 2.43-.12 3.48-1.05 4.29-3.12 2-5.14 4.08-10.25 6.32-15.29.86-1.93.56-2.83-1.2-4.09-4.42-3.15-4.97-8.41-1.6-12.08 3.7-4.04 8.88-4.09 12.65-.12 3.5 3.68 3.07 8.88-1.39 12.08-1.93 1.39-2.08 2.44-1.22 4.44 2.19 5.06 3.96 10.31 6.33 15.27.65 1.37 2.73 2.73 4.28 2.89 7.57.77 15.19 1.17 22.79 1.64 2.69.16 4.13 1.28 4.21 4.15.1 3.95.43 7.89.66 11.84-1.51.05-3.03.22-4.53.13-12.54-.76-37.47-2.65-37.47-2.65s-27.36 2.32-38.64 3.45z" class="st0"/>
  <path fill="#314a70" d="M73.32 483.91c-5.2-2.69-9.26-6.43-12.18-11.22-2.92-4.78-4.38-10.21-4.38-16.28s1.46-11.5 4.38-16.28c2.92-4.78 6.98-8.52 12.18-11.22 5.2-2.69 11.06-4.04 17.59-4.04 6.45 0 12.09 1.35 16.91 4.04 4.82 2.7 8.33 6.55 10.53 11.56l-13.78 7.4c-3.19-5.62-7.78-8.43-13.78-8.43-4.63 0-8.47 1.52-11.5 4.55-3.04 3.04-4.55 7.17-4.55 12.41s1.52 9.38 4.55 12.41c3.04 3.04 6.87 4.55 11.5 4.55 6.07 0 10.66-2.81 13.78-8.43l13.78 7.52c-2.2 4.86-5.71 8.65-10.53 11.39-4.82 2.73-10.46 4.1-16.91 4.1-6.53.01-12.39-1.34-17.59-4.03zm101.85-52.27c5.08 4.52 7.63 11.33 7.63 20.44v34.96h-16.62v-7.63c-3.34 5.69-9.56 8.54-18.67 8.54-4.71 0-8.79-.8-12.24-2.39-3.46-1.59-6.09-3.79-7.91-6.6-1.82-2.81-2.73-6-2.73-9.56 0-5.69 2.14-10.17 6.43-13.44 4.29-3.26 10.91-4.9 19.87-4.9h14.12c0-3.87-1.18-6.85-3.53-8.94-2.35-2.09-5.88-3.13-10.59-3.13-3.26 0-6.47.51-9.62 1.54-3.15 1.03-5.83 2.41-8.03 4.16l-6.38-12.41c3.34-2.35 7.34-4.17 12.01-5.47 4.67-1.29 9.47-1.94 14.4-1.94 9.49 0 16.77 2.26 21.86 6.77zm-15.14 42.25c2.35-1.4 4.02-3.47 5.01-6.21v-6.26h-12.18c-7.29 0-10.93 2.39-10.93 7.17 0 2.28.89 4.08 2.68 5.41 1.78 1.33 4.23 1.99 7.34 1.99 3.03 0 5.72-.7 8.08-2.1zm90.57-45.09c4.67 2.62 8.33 6.3 10.99 11.04 2.66 4.75 3.99 10.27 3.99 16.57s-1.33 11.82-3.99 16.57-6.32 8.43-10.99 11.04-9.85 3.93-15.54 3.93c-7.82 0-13.97-2.47-18.45-7.4v28.58h-17.76v-83.35h16.97v7.06c4.4-5.31 10.82-7.97 19.24-7.97 5.7 0 10.88 1.31 15.54 3.93zm-7.4 39.96c2.92-3.07 4.38-7.19 4.38-12.35s-1.46-9.28-4.38-12.35c-2.92-3.07-6.66-4.61-11.22-4.61s-8.29 1.54-11.22 4.61c-2.92 3.07-4.38 7.19-4.38 12.35s1.46 9.28 4.38 12.35c2.92 3.07 6.66 4.61 11.22 4.61s8.3-1.53 11.22-4.61zm39.91 17.31c-4.86-1.25-8.73-2.83-11.61-4.73l5.92-12.75c2.73 1.75 6.03 3.17 9.91 4.27 3.87 1.1 7.67 1.65 11.39 1.65 7.51 0 11.27-1.86 11.27-5.58 0-1.75-1.03-3-3.07-3.76-2.05-.76-5.2-1.4-9.45-1.94-5.01-.76-9.15-1.63-12.41-2.62-3.26-.99-6.09-2.73-8.48-5.24s-3.59-6.07-3.59-10.7c0-3.87 1.12-7.3 3.36-10.3 2.24-3 5.5-5.33 9.79-7 4.29-1.67 9.35-2.5 15.2-2.5 4.33 0 8.63.48 12.92 1.42 4.29.95 7.84 2.26 10.65 3.93l-5.92 12.64c-5.39-3.04-11.27-4.55-17.65-4.55-3.8 0-6.64.53-8.54 1.59-1.9 1.06-2.85 2.43-2.85 4.1 0 1.9 1.02 3.23 3.07 3.99 2.05.76 5.31 1.48 9.79 2.16 5.01.84 9.11 1.73 12.3 2.68 3.19.95 5.96 2.68 8.31 5.18 2.35 2.5 3.53 6 3.53 10.48 0 3.8-1.14 7.17-3.42 10.13-2.28 2.96-5.6 5.26-9.96 6.89-4.37 1.63-9.55 2.45-15.54 2.45-5.09-.01-10.06-.64-14.92-1.89zm116.48-60.29v61.26h-16.85v-7.29a23.4 23.4 0 0 1-8.43 6.09c-3.26 1.4-6.79 2.11-10.59 2.11-8.05 0-14.42-2.31-19.13-6.95-4.71-4.63-7.06-11.5-7.06-20.61v-34.61h17.76v32c0 9.87 4.14 14.8 12.41 14.8 4.25 0 7.67-1.38 10.25-4.16 2.58-2.77 3.87-6.89 3.87-12.35v-30.29h17.77zm16.51-23.23h17.76v84.49H416.1v-84.49zm93.94 58.87H463.7c.83 3.8 2.81 6.79 5.92 9 3.11 2.2 6.98 3.3 11.61 3.3 3.19 0 6.01-.47 8.48-1.42 2.47-.95 4.76-2.45 6.89-4.5l9.45 10.25c-5.77 6.6-14.2 9.91-25.28 9.91-6.91 0-13.02-1.35-18.33-4.04-5.31-2.69-9.41-6.43-12.3-11.22-2.89-4.78-4.33-10.21-4.33-16.28 0-6 1.42-11.4 4.27-16.23 2.85-4.82 6.76-8.58 11.73-11.27 4.97-2.69 10.53-4.04 16.68-4.04 6 0 11.42 1.29 16.28 3.87 4.86 2.58 8.67 6.28 11.44 11.1 2.77 4.82 4.16 10.42 4.16 16.79.01.22-.1 1.82-.33 4.78zm-41.56-19.7c-2.73 2.28-4.4 5.39-5.01 9.34h30.17c-.61-3.87-2.28-6.96-5.01-9.28-2.73-2.31-6.07-3.47-10.02-3.47-4.02-.01-7.4 1.13-10.13 3.41z"/>
  <path d="M144.97 316.25c2.88-4.14 5.7-8.31 8.68-12.38.84-1.14 2.13-1.94 3.22-2.9 8.67 2.77 17.24 5.98 26.06 8.18 7.28 1.81 7.49 1.33 11.08-5.55 9.52-18.28 18.99-36.58 28.42-54.91 3.55-6.9 7.04-13.85 10.34-20.87 1.87-3.99 1-5.28-3.27-5.1-5.07.21-10.13.68-15.19 1.04 1.72-2.35 3.24-4.87 5.2-7.01 4.47-4.88 9.14-9.57 13.74-14.34 1.84-.03 3.68.02 5.52-.1 14.62-1.03 29.24-2.1 43.86-3.16-.08.84-.24 1.68-.24 2.52.01 48.41.03 96.83.05 145.24-15.73.85-30.48.97-47.48-.65-16.01-1.04-30.66-3.54-46.6-5.49-13.64-1.67-26.85-5.2-39.21-11.4-4.77-2.4-5.86-5.41-4.24-10.45.25-.82.05-1.78.06-2.67z" class="st2"/>
  <path d="M282.42 346.9c-.02-48.41-.04-96.83-.05-145.24 0-.84.05-1.64.04-2.48 5.63.1 11.47-.06 17.08.32 11.35.78 22.67 1.83 34.01 2.77 2.69 3.09 5.47 6.1 8.05 9.28 3.38 4.17 6.61 8.47 9.9 12.71-6.04-.52-12.07-1.2-18.13-1.49-4.12-.2-4.91 1.24-3.08 4.81 9.87 19.27 19.73 38.54 29.65 57.78 4.02 7.79 8.22 15.49 12.24 23.29 1.46 2.83 3.6 3.9 6.61 3.17 11.52-2.81 23.03-5.68 34.54-8.52 1.8 3.04 3.52 6.13 5.42 9.1.89 1.39 2.13 2.56 3.21 3.83 0 .56-.19 1.22.04 1.66 3.28 6.31-.16 9.95-5.82 12.53-14.18 6.44-29.11 9.85-44.52 11.41-12.89 1.31-25.79 2.51-38.68 3.77-6.24.61-12.47 1.45-18.72 1.79-4.58.24-9.2-.17-13.81-.3l-17.85-.12-.13-.07z" class="st3"/>
  <path d="M413.28 303.3c-11.51 2.84-23.02 5.71-34.54 8.52-3.01.74-5.15-.34-6.61-3.17-4.02-7.79-8.22-15.49-12.24-23.29-9.92-19.24-19.79-38.51-29.65-57.78-1.83-3.57-1.04-5.01 3.08-4.81 6.05.29 12.09.97 18.13 1.49 1.89.4 2.54.15 5.06 3.74 17.1 24.41 37.01 47.73 54.85 71.62.81 1.1 1.28 2.45 1.92 3.68z" class="st2"/>
  <path d="M155.06 302.38c11.51 2.84 22.26 5.47 33.78 8.28 3.01.74 5.15-.34 6.61-3.17 4.02-7.79 8.22-15.49 12.24-23.29 9.92-19.24 17.3-37.26 26.37-56.7 1.83-3.57.68-4.95-3.44-4.75-6.05.29-10.08.42-16.13.94-2.11 1.25-2.46 1.66-3.84 3.47-18.01 23.75-35.83 47.64-53.67 71.53-.8 1.1-1.28 2.45-1.92 3.69z" class="st3"/>
  <path d="M421.92 316.24c0 .56-.19 1.22.04 1.66 3.28 6.31-.16 9.95-5.82 12.53-14.18 6.44-29.11 9.85-44.52 11.41-12.89 1.31-25.79 2.51-38.68 3.77-6.24.61-12.94 1.22-18.94 1.29-4.59.05-8.98.32-13.59.2l-17.85-.12-.12-.08c-15.36.35-28.73.35-46.17-1.19-15.98-1.41-31.97-2.99-47.91-4.95-13.64-1.67-26.85-5.2-39.21-11.4-4.77-2.4-5.86-5.41-4.24-10.45.26-.81.06-1.77.07-2.66-6.55 2.47-11.33 6.45-12.86 13.75-1.74 8.28.69 15.31 5.77 21.67 1.43 1.79 2.4 3.22.07 5.22-.71.61-.81 3.27-.15 3.89 6.36 6.04 13.89 10.11 22.37 12.36 2.35.62 4.12.02 4.62-2.85.11-.64 1.63-1.63 2.27-1.49 8.66 1.96 17.26 4.13 25.91 6.14 1.98.46 2.73 1 1.52 3.01-1.45 2.4-.41 3.92 2 4.93 8.64 3.63 17.82 3.98 26.97 4.34 2.18.08 4.54-.9 3.51-3.88-1.11-3.22.45-3.2 2.83-2.99 8.57.73 17.14 1.44 25.72 1.95 3.13.19 3.98 1.04 2.41 3.98-1.6 2.98-.26 4.76 2.9 4.77 14.82.08 29.65.17 44.46-.08 4.59-.08 5.1-1.29 3.36-5.63-.84-2.1-.97-2.87 1.76-3.02 9.16-.52 18.32-1.21 27.45-2.12 2.5-.25 3.06.34 2.55 2.56-.53 2.31.05 4.05 2.72 4.11 9.52.21 18.91-.53 27.82-4.34 1.95-.83 3.09-2.06 1.71-4.23-1.72-2.71-.09-3.15 2.17-3.67 8.24-1.87 16.46-3.83 24.64-5.93 1.82-.47 3-.77 3.21 1.6.26 2.99 2.1 3.32 4.53 2.61 8.11-2.36 15.55-5.98 21.6-11.99.69-.69 1.03-2.99.55-3.39-3.18-2.71-1.41-4.64.51-6.95 7.99-9.66 9.45-27.91-7.96-34.34z" class="st0"/>
  <path d="M324.35 192.94c-6.72-.27-13.4-.35-20.23-.52-7.13-.17-18.9-.51-18.9-.51s-1.27.04-2.44 0c0 0-.63-.01-.63.18-.01-5.67.01-11.83 0-17.5 12.58.95 24.65 1.94 37.19 2.72 1.5.09 3.29-.07 4.8-.12.05 5.24.19 10.5.21 15.75z" class="st3"/>
  <path d="M243.35 193.45c6.72-.27 10.02-.35 16.86-.52 7.13-.17 18.9-.51 18.9-.51s1.27.04 2.44 0c0 0 .63-.53.63-.34.01-5.67-.01-11.83 0-17.5-12.58.95-21.28 1.94-33.82 2.72-1.5.09-3.29-.07-4.8-.12-.05 5.25-.18 11.03-.21 16.27z" class="st2"/>
  <path d="M327.57 193.15c-1.31-.1-2.62-.17-3.93-.26-13.33-.32-26.66-.63-39.99-.95h-.2c-13.33.32-26.66.63-39.99.95-1.31.08-2.62.15-3.93.26-6.26.5-6.88 1.16-6.73 7.17.02.7.18 1.39.27 2.09 1.91-.03 3.82.02 5.72-.1 14.92-1.02 28.65-2.07 43.57-3.11 14.92 1.04 31.01 2.1 45.93 3.11 1.9.13 3.81.07 5.72.1.09-.7.25-1.39.27-2.09.17-6.01-.46-6.67-6.71-7.17z" class="st0"/>
</svg>
