<?xml version="1.0" encoding="utf-8"?>
<!-- Generator: Adobe Illustrator 24.2.1, SVG Export Plug-In . SVG Version: 6.00 Build 0)  -->
<svg version="1.1" id="Livello_1" xmlns="http://www.w3.org/2000/svg" xmlns:xlink="http://www.w3.org/1999/xlink" x="0px" y="0px"
	 viewBox="0 0 595.28 841.89" style="enable-background:new 0 0 595.28 841.89;" xml:space="preserve">
<style type="text/css">
	.st0{fill:#274872;}
	.st1{fill:#314A70;}
	.st2{fill:#5783AB;}
	.st3{fill:#EAECEC;}
</style>
<path class="st0" d="M243.53,178.65c-0.06-4.5-0.37-9.02,0-13.49c0.1-1.22,2.13-3.09,3.45-3.25c6.99-0.88,14.03-1.47,21.07-1.8
	c2.43-0.12,3.48-1.05,4.29-3.12c2-5.14,4.08-10.25,6.32-15.29c0.86-1.93,0.56-2.83-1.2-4.09c-4.42-3.15-4.97-8.41-1.6-12.08
	c3.7-4.04,8.88-4.09,12.65-0.12c3.5,3.68,3.07,8.88-1.39,12.08c-1.93,1.39-2.08,2.44-1.22,4.44c2.19,5.06,3.96,10.31,6.33,15.27
	c0.65,1.37,2.73,2.73,4.28,2.89c7.57,0.77,15.19,1.17,22.79,1.64c2.69,0.16,4.13,1.28,4.21,4.15c0.1,3.95,0.43,7.89,0.66,11.84
	c-1.51,0.05-3.03,0.22-4.53,0.13c-12.54-0.76-37.47-2.65-37.47-2.65S254.81,177.52,243.53,178.65z"/>
<g>
	<path class="st1" d="M73.32,483.91c-5.2-2.69-9.26-6.43-12.18-11.22c-2.92-4.78-4.38-10.21-4.38-16.28c0-6.07,1.46-11.5,4.38-16.28
		c2.92-4.78,6.98-8.52,12.18-11.22c5.2-2.69,11.06-4.04,17.59-4.04c6.45,0,12.09,1.35,16.91,4.04c4.82,2.7,8.33,6.55,10.53,11.56
		l-13.78,7.4c-3.19-5.62-7.78-8.43-13.78-8.43c-4.63,0-8.47,1.52-11.5,4.55c-3.04,3.04-4.55,7.17-4.55,12.41
		c0,5.24,1.52,9.38,4.55,12.41c3.04,3.04,6.87,4.55,11.5,4.55c6.07,0,10.66-2.81,13.78-8.43l13.78,7.52
		c-2.2,4.86-5.71,8.65-10.53,11.39c-4.82,2.73-10.46,4.1-16.91,4.1C84.38,487.95,78.52,486.6,73.32,483.91z"/>
	<path class="st1" d="M175.17,431.64c5.08,4.52,7.63,11.33,7.63,20.44v34.96h-16.62v-7.63c-3.34,5.69-9.56,8.54-18.67,8.54
		c-4.71,0-8.79-0.8-12.24-2.39c-3.46-1.59-6.09-3.79-7.91-6.6c-1.82-2.81-2.73-6-2.73-9.56c0-5.69,2.14-10.17,6.43-13.44
		c4.29-3.26,10.91-4.9,19.87-4.9h14.12c0-3.87-1.18-6.85-3.53-8.94c-2.35-2.09-5.88-3.13-10.59-3.13c-3.26,0-6.47,0.51-9.62,1.54
		c-3.15,1.03-5.83,2.41-8.03,4.16l-6.38-12.41c3.34-2.35,7.34-4.17,12.01-5.47c4.67-1.29,9.47-1.94,14.4-1.94
		C162.8,424.87,170.08,427.13,175.17,431.64z M160.03,473.89c2.35-1.4,4.02-3.47,5.01-6.21v-6.26h-12.18
		c-7.29,0-10.93,2.39-10.93,7.17c0,2.28,0.89,4.08,2.68,5.41c1.78,1.33,4.23,1.99,7.34,1.99
		C154.98,475.99,157.67,475.29,160.03,473.89z"/>
	<path class="st1" d="M250.6,428.8c4.67,2.62,8.33,6.3,10.99,11.04c2.66,4.75,3.99,10.27,3.99,16.57s-1.33,11.82-3.99,16.57
		c-2.66,4.75-6.32,8.43-10.99,11.04s-9.85,3.93-15.54,3.93c-7.82,0-13.97-2.47-18.45-7.4v28.58h-17.76v-83.35h16.97v7.06
		c4.4-5.31,10.82-7.97,19.24-7.97C240.76,424.87,245.94,426.18,250.6,428.8z M243.2,468.76c2.92-3.07,4.38-7.19,4.38-12.35
		s-1.46-9.28-4.38-12.35c-2.92-3.07-6.66-4.61-11.22-4.61s-8.29,1.54-11.22,4.61c-2.92,3.07-4.38,7.19-4.38,12.35
		s1.46,9.28,4.38,12.35c2.92,3.07,6.66,4.61,11.22,4.61S240.28,471.84,243.2,468.76z"/>
	<path class="st1" d="M283.11,486.07c-4.86-1.25-8.73-2.83-11.61-4.73l5.92-12.75c2.73,1.75,6.03,3.17,9.91,4.27
		c3.87,1.1,7.67,1.65,11.39,1.65c7.51,0,11.27-1.86,11.27-5.58c0-1.75-1.03-3-3.07-3.76c-2.05-0.76-5.2-1.4-9.45-1.94
		c-5.01-0.76-9.15-1.63-12.41-2.62c-3.26-0.99-6.09-2.73-8.48-5.24s-3.59-6.07-3.59-10.7c0-3.87,1.12-7.3,3.36-10.3
		c2.24-3,5.5-5.33,9.79-7c4.29-1.67,9.35-2.5,15.2-2.5c4.33,0,8.63,0.48,12.92,1.42c4.29,0.95,7.84,2.26,10.65,3.93l-5.92,12.64
		c-5.39-3.04-11.27-4.55-17.65-4.55c-3.8,0-6.64,0.53-8.54,1.59c-1.9,1.06-2.85,2.43-2.85,4.1c0,1.9,1.02,3.23,3.07,3.99
		c2.05,0.76,5.31,1.48,9.79,2.16c5.01,0.84,9.11,1.73,12.3,2.68c3.19,0.95,5.96,2.68,8.31,5.18c2.35,2.5,3.53,6,3.53,10.48
		c0,3.8-1.14,7.17-3.42,10.13c-2.28,2.96-5.6,5.26-9.96,6.89c-4.37,1.63-9.55,2.45-15.54,2.45
		C292.94,487.95,287.97,487.32,283.11,486.07z"/>
	<path class="st1" d="M399.59,425.78v61.26h-16.85v-7.29c-2.35,2.66-5.16,4.69-8.43,6.09c-3.26,1.4-6.79,2.11-10.59,2.11
		c-8.05,0-14.42-2.31-19.13-6.95c-4.71-4.63-7.06-11.5-7.06-20.61v-34.61h17.76v32c0,9.87,4.14,14.8,12.41,14.8
		c4.25,0,7.67-1.38,10.25-4.16c2.58-2.77,3.87-6.89,3.87-12.35v-30.29H399.59z"/>
	<path class="st1" d="M416.1,402.55h17.76v84.49H416.1V402.55z"/>
	<path class="st1" d="M510.04,461.42H463.7c0.83,3.8,2.81,6.79,5.92,9c3.11,2.2,6.98,3.3,11.61,3.3c3.19,0,6.01-0.47,8.48-1.42
		c2.47-0.95,4.76-2.45,6.89-4.5l9.45,10.25c-5.77,6.6-14.2,9.91-25.28,9.91c-6.91,0-13.02-1.35-18.33-4.04
		c-5.31-2.69-9.41-6.43-12.3-11.22c-2.89-4.78-4.33-10.21-4.33-16.28c0-6,1.42-11.4,4.27-16.23c2.85-4.82,6.76-8.58,11.73-11.27
		c4.97-2.69,10.53-4.04,16.68-4.04c6,0,11.42,1.29,16.28,3.87c4.86,2.58,8.67,6.28,11.44,11.1c2.77,4.82,4.16,10.42,4.16,16.79
		C510.38,456.86,510.27,458.46,510.04,461.42z M468.48,441.72c-2.73,2.28-4.4,5.39-5.01,9.34h30.17c-0.61-3.87-2.28-6.96-5.01-9.28
		c-2.73-2.31-6.07-3.47-10.02-3.47C474.59,438.3,471.21,439.44,468.48,441.72z"/>
</g>
<g>
	<g>
		<path class="st2" d="M144.97,316.25c2.88-4.14,5.7-8.31,8.68-12.38c0.84-1.14,2.13-1.94,3.22-2.9c8.67,2.77,17.24,5.98,26.06,8.18
			c7.28,1.81,7.49,1.33,11.08-5.55c9.52-18.28,18.99-36.58,28.42-54.91c3.55-6.9,7.04-13.85,10.34-20.87c1.87-3.99,1-5.28-3.27-5.1
			c-5.07,0.21-10.13,0.68-15.19,1.04c1.72-2.35,3.24-4.87,5.2-7.01c4.47-4.88,9.14-9.57,13.74-14.34c1.84-0.03,3.68,0.02,5.52-0.1
			c14.62-1.03,29.24-2.1,43.86-3.16c-0.08,0.84-0.24,1.68-0.24,2.52c0.01,48.41,0.03,96.83,0.05,145.24
			c-15.73,0.85-30.48,0.97-47.48-0.65c-16.01-1.04-30.66-3.54-46.6-5.49c-13.64-1.67-26.85-5.2-39.21-11.4
			c-4.77-2.4-5.86-5.41-4.24-10.45C145.16,318.1,144.96,317.14,144.97,316.25z"/>
		<path class="st3" d="M282.42,346.9c-0.02-48.41-0.04-96.83-0.05-145.24c0-0.84,0.05-1.64,0.04-2.48
			c5.63,0.1,11.47-0.06,17.08,0.32c11.35,0.78,22.67,1.83,34.01,2.77c2.69,3.09,5.47,6.1,8.05,9.28c3.38,4.17,6.61,8.47,9.9,12.71
			c-6.04-0.52-12.07-1.2-18.13-1.49c-4.12-0.2-4.91,1.24-3.08,4.81c9.87,19.27,19.73,38.54,29.65,57.78
			c4.02,7.79,8.22,15.49,12.24,23.29c1.46,2.83,3.6,3.9,6.61,3.17c11.52-2.81,23.03-5.68,34.54-8.52c1.8,3.04,3.52,6.13,5.42,9.1
			c0.89,1.39,2.13,2.56,3.21,3.83c0,0.56-0.19,1.22,0.04,1.66c3.28,6.31-0.16,9.95-5.82,12.53c-14.18,6.44-29.11,9.85-44.52,11.41
			c-12.89,1.31-25.79,2.51-38.68,3.77c-6.24,0.61-12.47,1.45-18.72,1.79c-4.58,0.24-9.2-0.17-13.81-0.3
			c-5.95-0.04-11.9-0.08-17.85-0.12L282.42,346.9z"/>
		<path class="st2" d="M413.28,303.3c-11.51,2.84-23.02,5.71-34.54,8.52c-3.01,0.74-5.15-0.34-6.61-3.17
			c-4.02-7.79-8.22-15.49-12.24-23.29c-9.92-19.24-19.79-38.51-29.65-57.78c-1.83-3.57-1.04-5.01,3.08-4.81
			c6.05,0.29,12.09,0.97,18.13,1.49c1.89,0.4,2.54,0.15,5.06,3.74c17.1,24.41,37.01,47.73,54.85,71.62
			C412.17,300.72,412.64,302.07,413.28,303.3z"/>
		<path class="st3" d="M155.06,302.38c11.51,2.84,22.26,5.47,33.78,8.28c3.01,0.74,5.15-0.34,6.61-3.17
			c4.02-7.79,8.22-15.49,12.24-23.29c9.92-19.24,17.3-37.26,26.37-56.7c1.83-3.57,0.68-4.95-3.44-4.75
			c-6.05,0.29-10.08,0.42-16.13,0.94c-2.11,1.25-2.46,1.66-3.84,3.47c-18.01,23.75-35.83,47.64-53.67,71.53
			C156.18,299.79,155.7,301.14,155.06,302.38z"/>
		<path class="st0" d="M421.92,316.24c0,0.56-0.19,1.22,0.04,1.66c3.28,6.31-0.16,9.95-5.82,12.53
			c-14.18,6.44-29.11,9.85-44.52,11.41c-12.89,1.31-25.79,2.51-38.68,3.77c-6.24,0.61-12.94,1.22-18.94,1.29
			c-4.59,0.05-8.98,0.32-13.59,0.2c-5.95-0.04-11.9-0.08-17.85-0.12c0,0-0.12-0.08-0.12-0.08c-15.36,0.35-28.73,0.35-46.17-1.19
			c-15.98-1.41-31.97-2.99-47.91-4.95c-13.64-1.67-26.85-5.2-39.21-11.4c-4.77-2.4-5.86-5.41-4.24-10.45
			c0.26-0.81,0.06-1.77,0.07-2.66c-6.55,2.47-11.33,6.45-12.86,13.75c-1.74,8.28,0.69,15.31,5.77,21.67
			c1.43,1.79,2.4,3.22,0.07,5.22c-0.71,0.61-0.81,3.27-0.15,3.89c6.36,6.04,13.89,10.11,22.37,12.36c2.35,0.62,4.12,0.02,4.62-2.85
			c0.11-0.64,1.63-1.63,2.27-1.49c8.66,1.96,17.26,4.13,25.91,6.14c1.98,0.46,2.73,1,1.52,3.01c-1.45,2.4-0.41,3.92,2,4.93
			c8.64,3.63,17.82,3.98,26.97,4.34c2.18,0.08,4.54-0.9,3.51-3.88c-1.11-3.22,0.45-3.2,2.83-2.99c8.57,0.73,17.14,1.44,25.72,1.95
			c3.13,0.19,3.98,1.04,2.41,3.98c-1.6,2.98-0.26,4.76,2.9,4.77c14.82,0.08,29.65,0.17,44.46-0.08c4.59-0.08,5.1-1.29,3.36-5.63
			c-0.84-2.1-0.97-2.87,1.76-3.02c9.16-0.52,18.32-1.21,27.45-2.12c2.5-0.25,3.06,0.34,2.55,2.56c-0.53,2.31,0.05,4.05,2.72,4.11
			c9.52,0.21,18.91-0.53,27.82-4.34c1.95-0.83,3.09-2.06,1.71-4.23c-1.72-2.71-0.09-3.15,2.17-3.67c8.24-1.87,16.46-3.83,24.64-5.93
			c1.82-0.47,3-0.77,3.21,1.6c0.26,2.99,2.1,3.32,4.53,2.61c8.11-2.36,15.55-5.98,21.6-11.99c0.69-0.69,1.03-2.99,0.55-3.39
			c-3.18-2.71-1.41-4.64,0.51-6.95C437.87,340.92,439.33,322.67,421.92,316.24z"/>
	</g>
</g>
<path class="st3" d="M324.35,192.94c-6.72-0.27-13.4-0.35-20.23-0.52c-7.13-0.17-18.9-0.51-18.9-0.51s-1.27,0.04-2.44,0
	c0,0-0.63-0.01-0.63,0.18c-0.01-5.67,0.01-11.83,0-17.5c12.58,0.95,24.65,1.94,37.19,2.72c1.5,0.09,3.29-0.07,4.8-0.12
	C324.19,182.43,324.33,187.69,324.35,192.94z"/>
<path class="st2" d="M243.35,193.45c6.72-0.27,10.02-0.35,16.86-0.52c7.13-0.17,18.9-0.51,18.9-0.51s1.27,0.04,2.44,0
	c0,0,0.63-0.53,0.63-0.34c0.01-5.67-0.01-11.83,0-17.5c-12.58,0.95-21.28,1.94-33.82,2.72c-1.5,0.09-3.29-0.07-4.8-0.12
	C243.51,182.43,243.38,188.21,243.35,193.45z"/>
<path class="st0" d="M327.57,193.15c-1.31-0.1-2.62-0.17-3.93-0.26c-13.33-0.32-26.66-0.63-39.99-0.95v0c-0.03,0-0.06,0-0.1,0
	c-0.03,0-0.06,0-0.1,0v0c-13.33,0.32-26.66,0.63-39.99,0.95c-1.31,0.08-2.62,0.15-3.93,0.26c-6.26,0.5-6.88,1.16-6.73,7.17
	c0.02,0.7,0.18,1.39,0.27,2.09c1.91-0.03,3.82,0.02,5.72-0.1c14.92-1.02,28.65-2.07,43.57-3.11c14.92,1.04,31.01,2.1,45.93,3.11
	c1.9,0.13,3.81,0.07,5.72,0.1c0.09-0.7,0.25-1.39,0.27-2.09C334.45,194.31,333.82,193.65,327.57,193.15z"/>
</svg>
