<?xml version="1.0" encoding="iso-8859-1"?>
<!-- Generator: Adobe Illustrator 19.0.0, SVG Export Plug-In . SVG Version: 6.00 Build 0)  -->
<svg version="1.1" id="Layer_1" xmlns="http://www.w3.org/2000/svg" x="0px" y="0px"
     viewBox="0 0 504.123 504.123" style="enable-background:new 0 0 504.123 504.123;" xml:space="preserve">
<path style="fill:#2477AA;" d="M265.665,468.582c0.378-1.276,0.646-2.615,0.646-4.033v-63.827c0-7.483-5.805-13.564-13.162-14.131
	l0,0c-0.354-0.039-0.709-0.118-1.087-0.11c-7.869,0-14.249,6.372-14.249,14.241v63.835c0,1.41,0.268,2.749,0.646,4.025
	c-4.112,1.772-7.026,5.868-7.026,10.65v3.812v3.419c0,6.396,5.175,11.587,11.579,11.587h18.093c6.396,0,11.571-5.183,11.571-11.587
	v-7.231C272.675,474.451,269.777,470.355,265.665,468.582z"/>
<ellipse style="fill:#7BC6C6;" cx="252.062" cy="85.851" rx="7.404" ry="67.245"/>
<circle style="fill:#FF7F00;" cx="252.062" cy="269.722" r="183.863"/>
<path style="fill:#FF5B00;" d="M252.062,85.858c101.541,0,183.863,82.322,183.863,183.863c0,101.557-82.322,183.879-183.863,183.879
	"/>
<path style="fill:#25618E;" d="M110.222,386.733h283.672c25.647-31.051,41.173-70.719,41.874-113.971H68.348
	C69.065,316.014,84.582,355.675,110.222,386.733z"/>
<g>
	<path style="fill:#18456D;" d="M252.062,272.762v113.971h141.832c0-0.008,0.024-0.024,0.031-0.039
		c0.055-0.063,0.095-0.142,0.165-0.197c3.411-4.151,6.609-8.476,9.657-12.926c1.166-1.686,2.198-3.45,3.277-5.167
		c1.827-2.851,3.631-5.742,5.309-8.704c1.26-2.229,2.41-4.537,3.584-6.829c1.276-2.505,2.489-5.049,3.671-7.625
		c1.197-2.67,2.355-5.38,3.426-8.113c0.874-2.221,1.678-4.474,2.465-6.735c1.087-3.119,2.15-6.246,3.072-9.429
		c0.512-1.757,0.922-3.545,1.378-5.325c3.497-13.674,5.585-27.932,5.837-42.646c0-0.079,0-0.15,0.016-0.221H252.062V272.762z"/>
	<path style="fill:#18456D;" d="M152.174,298.977c0,1.883-1.528,3.426-3.419,3.426h-28.499c-1.883,0-3.419-1.536-3.419-3.426l0,0
		c0-1.883,1.528-3.426,3.419-3.426h28.499C150.646,295.55,152.174,297.094,152.174,298.977L152.174,298.977z"/>
	<path style="fill:#18456D;" d="M152.174,318.354c0,1.883-1.528,3.419-3.419,3.419h-28.499c-1.883,0-3.419-1.528-3.419-3.419l0,0
		c0-1.89,1.528-3.426,3.419-3.426h28.499C150.646,314.927,152.174,316.463,152.174,318.354L152.174,318.354z"/>
	<path style="fill:#18456D;" d="M152.174,337.723c0,1.89-1.528,3.426-3.419,3.426h-28.499c-1.883,0-3.419-1.528-3.419-3.426l0,0
		c0-1.883,1.528-3.419,3.419-3.419h28.499C150.646,334.305,152.174,335.841,152.174,337.723L152.174,337.723z"/>
</g>
<path style="fill:#25618E;" d="M380.109,352.54c0,10.075-8.153,18.235-18.219,18.235h-67.253c-10.059,0-18.219-8.16-18.219-18.235
	v-45.584c0-10.067,8.16-18.227,18.219-18.227h67.253c10.067,0,18.219,8.16,18.219,18.227V352.54z"/>
<g>
	<path style="fill:#3479A3;" d="M367.577,347.034c0,7.633-6.183,13.832-13.824,13.832h-50.987c-7.641,0-13.832-6.199-13.832-13.832
		v-34.572c0-7.633,6.191-13.824,13.832-13.824h50.987c7.641,0,13.824,6.191,13.824,13.824V347.034z"/>
	<path style="fill:#3479A3;" d="M289.666,81.865c0,7.239-5.868,13.107-13.107,13.107h-49.01c-7.231,0-13.099-5.868-13.099-13.107
		l0,0c0-7.239,5.868-13.107,13.099-13.107h49.01C283.798,68.758,289.666,74.626,289.666,81.865L289.666,81.865z"/>
</g>
<path style="fill:#18456D;" d="M276.559,68.758c7.239,0,13.107,5.868,13.107,13.107l0,0c0,7.239-5.868,13.107-13.107,13.107h-49.01
	c-7.231,0-13.099-5.868-13.099-13.107l0,0"/>
<circle style="fill:#B4E7ED;" cx="252.062" cy="152.718" r="14.438"/>
<path style="fill:#7BC6C6;" d="M252.062,138.279c7.979,0,14.438,6.467,14.438,14.438s-6.459,14.438-14.438,14.438"/>
<circle style="fill:#B4E7ED;" cx="252.062" cy="198.309" r="14.438"/>
<path style="fill:#7BC6C6;" d="M252.062,183.871c7.979,0,14.438,6.459,14.438,14.438c0,7.971-6.459,14.438-14.438,14.438"/>
<circle style="fill:#B4E7ED;" cx="252.069" cy="14.438" r="14.438"/>
<path style="fill:#7BC6C6;" d="M262.262,4.23c5.648,5.64,5.648,14.785,0.016,20.417c-5.64,5.632-14.785,5.632-20.417,0"/>
<circle style="fill:#B4E7ED;" cx="252.062" cy="243.893" r="14.438"/>
<g>
	<path style="fill:#7BC6C6;" d="M252.062,229.455c7.979,0,14.438,6.467,14.438,14.438s-6.459,14.438-14.438,14.438"/>
	<path style="fill:#7BC6C6;" d="M353.319,332.312c0,2.056-1.646,3.71-3.694,3.71h-13.107c-2.048,0-3.71-1.654-3.71-3.71l0,0
		c0-2.048,1.662-3.702,3.71-3.702h13.107C351.673,328.609,353.319,330.264,353.319,332.312L353.319,332.312z"/>
</g>
<path style="fill:#FF5B00;" d="M185.194,440.95c-0.457-18.692-14.612-33.705-32.106-33.705c-6.231,0-12.012,2.001-16.951,5.309
	C150.772,424.432,167.329,433.995,185.194,440.95z"/>
<path style="fill:#7BC6C6;" d="M161.225,412.782c5.561,5.569,5.561,14.588,0,20.157l-45.127,45.127
	c-5.569,5.569-14.588,5.569-20.149,0l0,0c-5.561-5.553-5.561-14.58,0-20.149l45.135-45.127
	C146.637,407.221,155.656,407.221,161.225,412.782L161.225,412.782z"/>
<path style="fill:#8DD8D6;" d="M141.084,412.782l-45.135,45.127c-1,1.008-1.78,2.143-2.41,3.34c0.228,0.276,0.433,0.583,0.693,0.851
	c5.585,5.569,14.588,5.569,20.157,0l45.127-45.127c1.016-1.008,1.764-2.143,2.41-3.34c-0.236-0.284-0.433-0.583-0.701-0.851
	C155.656,407.221,146.637,407.221,141.084,412.782z"/>
<path style="fill:#25618E;" d="M130.859,485.888c0,10.067-8.153,18.235-18.227,18.235H84.141c-10.059,0-18.235-8.168-18.235-18.235
	v-11.39c0-10.075,8.176-18.235,18.235-18.235h28.491c10.075,0,18.227,8.16,18.227,18.235V485.888z"/>
<path style="fill:#2477AA;" d="M117.752,457.074c-1.638-0.488-3.332-0.819-5.12-0.819H84.141c-10.059,0-18.235,8.16-18.235,18.235
	v6.018c1.638,0.48,3.332,0.819,5.128,0.819h28.491c10.075,0,18.227-8.16,18.227-18.227V457.074z"/>
<path style="fill:#FF7F00;" d="M318.921,440.95c0.465-18.692,14.62-33.705,32.114-33.705c6.223,0,12.012,2.001,16.951,5.309
	C353.351,424.432,336.786,433.995,318.921,440.95z"/>
<path style="fill:#7BC6C6;" d="M342.898,412.782c-5.561,5.569-5.561,14.588,0,20.157l45.127,45.127
	c5.577,5.569,14.588,5.569,20.157,0l0,0c5.561-5.553,5.561-14.58,0-20.149L363.04,412.79
	C357.486,407.221,348.459,407.221,342.898,412.782L342.898,412.782z"/>
<path style="fill:#8DD8D6;" d="M363.032,412.782l45.143,45.127c1,1.008,1.772,2.143,2.41,3.34c-0.228,0.276-0.433,0.583-0.693,0.851
	c-5.577,5.569-14.588,5.569-20.165,0L344.6,416.973c-1.016-1.008-1.764-2.143-2.41-3.34c0.236-0.284,0.433-0.583,0.701-0.851
	C348.459,407.221,357.486,407.221,363.032,412.782z"/>
<path style="fill:#25618E;" d="M373.264,485.888c0,10.067,8.153,18.235,18.227,18.235h28.491c10.059,0,18.235-8.168,18.235-18.235
	v-11.39c0-10.075-8.176-18.235-18.235-18.235h-28.491c-10.075,0-18.227,8.16-18.227,18.235V485.888z"/>
<path style="fill:#2477AA;" d="M386.371,457.074c1.638-0.488,3.332-0.819,5.12-0.819h28.491c10.059,0,18.235,8.16,18.235,18.235
	v6.018c-1.638,0.48-3.332,0.819-5.128,0.819h-28.491c-10.075,0-18.227-8.16-18.227-18.227V457.074z"/>
<path style="fill:#B4E7ED;" d="M72.428,230.747c1.788,0.591,3.679,0.985,5.671,0.985h98.013c10.067,0,18.219-8.168,18.219-18.235
	V95.232C133.152,115.468,86.221,166.896,72.428,230.747z"/>
<path style="fill:#7BC6C6;" d="M78.1,231.731h98.013c10.067,0,18.219-8.168,18.219-18.235V95.232"/>
<g>
</g>
<g>
</g>
<g>
</g>
<g>
</g>
<g>
</g>
<g>
</g>
<g>
</g>
<g>
</g>
<g>
</g>
<g>
</g>
<g>
</g>
<g>
</g>
<g>
</g>
<g>
</g>
<g>
</g>
</svg>
